<?xml version="1.0" encoding="iso-8859-1"?>
<!-- Generator: Adobe Illustrator 19.0.0, SVG Export Plug-In . SVG Version: 6.00 Build 0)  -->
<svg version="1.1" id="Layer_1" xmlns="http://www.w3.org/2000/svg" xmlns:xlink="http://www.w3.org/1999/xlink" x="0px" y="0px"
	 viewBox="0 0 295.239 295.239" style="enable-background:new 0 0 295.239 295.239;" xml:space="preserve">
<g>
	<g>
		<path style="fill:#F9BA48;" d="M71.43,171.429h-9.524c-34.134,0-61.905-27.772-61.905-61.905s27.771-61.905,61.905-61.905
			c4.876,0,9.71,0.571,14.419,1.695c6.005-9.824,16.767-15.981,28.438-15.981c4.886,0,9.643,1.057,14.01,3.076
			C131.353,14.138,155.234,0,180.952,0c38.071,0,69.286,29.943,71.324,67.519c24.771,4.448,42.962,25.905,42.962,51.529
			c0,28.881-23.5,52.381-52.381,52.381H223.81H71.43z"/>
		<path style="fill:#333333;" d="M147.62,133.333c-39.386,0-71.429,32.043-71.429,71.429s32.043,71.429,71.429,71.429
			s71.429-32.043,71.429-71.429S187.006,133.333,147.62,133.333z M147.62,266.667c-34.133,0-61.905-27.771-61.905-61.905
			s27.771-61.905,61.905-61.905s61.905,27.771,61.905,61.905S181.753,266.667,147.62,266.667z"/>
		<path style="fill:#333333;" d="M152.977,161.905h-0.595v-9.524h-9.524v9.524h-0.595c-12.8,0-23.214,10.414-23.214,23.214v1.19
			c0,12.8,10.414,23.214,23.214,23.214h10.714c7.548,0,13.69,6.143,13.69,13.69v1.19c0,7.548-6.143,13.69-13.69,13.69h-10.714
			c-7.548,0-13.69-4.762-13.69-14.286h-9.524c0,14.286,10.414,23.81,23.214,23.81h0.595v9.524h9.524v-9.524h0.595
			c12.8,0,23.214-10.414,23.214-23.214v-1.19c0-12.8-10.414-23.214-23.214-23.214h-10.714c-7.548,0-13.69-6.143-13.69-13.69v-1.19
			c0-7.548,6.143-13.69,13.69-13.69h10.714c7.548,0,13.69,6.143,13.69,13.69v0.595h9.524v-0.595
			C176.191,172.319,165.777,161.905,152.977,161.905z"/>
		<path style="fill:#333333;" d="M247.62,123.81c0-10.505-8.543-19.048-19.048-19.048H66.668c-10.505,0-19.048,8.543-19.048,19.048
			s8.543,19.048,19.048,19.048H81.82c-15.252,16.2-24.676,37.952-24.676,61.905c0,49.89,40.586,90.476,90.476,90.476
			s90.476-40.586,90.476-90.476c0-23.952-9.424-45.705-24.676-61.905h15.152C239.077,142.857,247.62,134.314,247.62,123.81z
			 M57.144,123.81c0-5.252,4.271-9.524,9.524-9.524h80.952h80.952c5.252,0,9.524,4.271,9.524,9.524s-4.271,9.524-9.524,9.524
			h-25.624c-15.314-11.89-34.481-19.048-55.329-19.048s-40.014,7.157-55.329,19.048H66.668
			C61.415,133.333,57.144,129.062,57.144,123.81z M147.62,285.714c-44.638,0-80.952-36.314-80.952-80.952
			s36.314-80.952,80.952-80.952s80.952,36.314,80.952,80.952S192.258,285.714,147.62,285.714z"/>
	</g>
</g>
<g>
</g>
<g>
</g>
<g>
</g>
<g>
</g>
<g>
</g>
<g>
</g>
<g>
</g>
<g>
</g>
<g>
</g>
<g>
</g>
<g>
</g>
<g>
</g>
<g>
</g>
<g>
</g>
<g>
</g>
</svg>
